<svg width="30" height="32" viewBox="0 0 30 32" fill="none" xmlns="http://www.w3.org/2000/svg">
<path fill-rule="evenodd" clip-rule="evenodd" d="M15 32C23.2843 32 30 24.8365 30 16C30 7.16345 23.2843 0 15 0C6.7157 0 0 7.16345 0 16C0 24.8365 6.7157 32 15 32ZM24.8566 21.3333C25.5886 19.7267 26.0001 17.9158 26.0001 16C26.0001 9.37259 21.0752 4 15.0001 4C14.1529 4 13.3281 4.10448 12.5359 4.30226C16.3328 5.30223 19.1251 8.66824 19.1251 12.6667C19.1251 15.7738 17.3806 18.8188 15.6876 21.3333H24.8566ZM10.1875 6.6665C13.6047 6.6665 16.375 9.35278 16.375 12.6665C16.375 16.4663 13.3608 20.134 10.9429 23.076C10.6827 23.3926 10.4294 23.7008 10.1875 23.9998H23.199C21.1849 26.4548 18.2578 27.9998 15 27.9998C8.92487 27.9998 4 22.6273 4 15.9998C4 12.3379 5.61517 6.6665 10.1875 6.6665Z" fill="#7859CF"/>
</svg>
